<?xml version="1.0" encoding="utf-8"?>
<!-- Generator: Adobe Illustrator 22.1.0, SVG Export Plug-In . SVG Version: 6.00 Build 0)  -->
<svg version="1.1" id="Layer_1" xmlns="http://www.w3.org/2000/svg" xmlns:xlink="http://www.w3.org/1999/xlink" x="0px" y="0px"
	 viewBox="0 0 1892.7 920.6" style="enable-background:new 0 0 1892.7 920.6;" xml:space="preserve">
<style type="text/css">
	.st0{fill:#40DBBD;}
	.st1{fill:#FFBFBC;}
	.st2{fill:#CECCCC;}
	.st3{fill:#A7EBE6;}
	.st4{fill:#DDDBDB;}
	.st5{fill:#7698CE;}
	.st6{fill:#34BDBA;}
</style>
<title>bg-about2</title>
<rect x="918.2" y="290.9" transform="matrix(0.9749 -0.2227 0.2227 0.9749 -40.3627 239.7683)" class="st0" width="249.1" height="15.8"/>
<path class="st1" d="M1788.7,634.9c2.3-2.9,6.5-3.7,9.7-1.7c16.9,10.5,26.7,25.8,26.7,41.9s-9.6,31.5-26.5,42.1
	c-12.6,7.9-19.6,18.4-19.6,29.5s7,21.5,19.7,29.4c3.5,2.2,4.5,6.8,2.3,10.2c-2.2,3.4-6.6,4.4-10.1,2.4
	c-16.9-10.5-26.7-25.8-26.7-41.9s9.6-31.5,26.5-42.1c12.6-7.9,19.6-18.4,19.6-29.5s-7-21.5-19.7-29.4c-3.5-2.2-4.5-6.7-2.4-10.2
	C1788.4,635.3,1788.6,635.1,1788.7,634.9z"/>
<path class="st1" d="M1377.4,350.2c5.8,25.7-1.3,54.3-20.3,80.4c-14.5,19.9-18.8,39.9-12.1,56.4s23.7,27.9,47.9,32.2
	c10.1,1.8,16.9,11.5,15.1,21.6c-0.1,0.7-0.3,1.3-0.5,2c-2.7,9.1-11.8,14.7-21.1,13.1c-36.8-6.4-64.6-26.5-76.1-54.9
	s-5.5-62.1,16.6-92.3c14.5-19.9,18.8-39.9,12.1-56.4s-23.7-27.9-47.9-32.2c-4.9-0.9-9.2-3.6-12-7.7c-2.9-4-4-9-3.1-13.9
	c0.9-4.9,3.6-9.2,7.7-12c4-2.9,9-4,13.9-3.1c36.8,6.4,64.6,26.5,76.1,54.9C1375.2,342.1,1376.4,346.1,1377.4,350.2z M1332.2,483
	c-4.1-18.3,1.4-38.8,16-58.9c19.7-27.1,25.3-56.9,15.3-81.8c-10-24.9-34.7-42.4-67.8-48.2c-4.2-0.7-8.1,2.1-8.8,6.3
	c-0.3,2,0.1,4,1.3,5.7c1.2,1.7,3,2.8,5,3.2c28.1,4.9,48.1,18.7,56.2,38.8s3.4,43.9-13.4,67c-19.7,27.1-25.3,56.9-15.3,81.8
	s34.7,42.4,67.8,48.2c3.9,0.7,7.6-1.6,8.7-5.4l0,0c0.1-0.3,0.1-0.6,0.2-0.9c0.7-4.2-2-8.1-6.2-8.9c-28.1-4.9-48.1-18.7-56.2-38.8
	C1333.8,488.5,1332.8,485.8,1332.2,483z"/>
<path class="st2" d="M1892.7,270.7l-372.8,104.4l96-375.1L1892.7,270.7z M1543.7,350.7l315.9-88.5L1625,32.9L1543.7,350.7z"/>
<path class="st3" d="M1466.9,560.8L1466.9,560.8c55.7,15.4,88.4,73,73,128.7c0,0,0,0,0,0l0,0c-15.4,55.7-73,88.4-128.7,73
	c0,0,0,0,0,0l0,0c-55.7-15.4-88.4-73-73-128.7c0,0,0,0,0,0l0,0C1353.6,578.2,1411.2,545.5,1466.9,560.8z"/>
<path class="st4" d="M1056.6,351.4L1056.6,351.4c9.7,2.7,15.4,12.7,12.7,22.4c0,0,0,0,0,0l0,0c-2.7,9.7-12.7,15.4-22.4,12.7
	c0,0,0,0,0,0l0,0c-9.7-2.7-15.4-12.7-12.7-22.4c0,0,0,0,0,0l0,0C1036.8,354.4,1046.8,348.7,1056.6,351.4
	C1056.5,351.4,1056.5,351.4,1056.6,351.4z"/>
<path class="st1" d="M1108.3,125.2L1108.3,125.2c24.5,6.8,38.9,32.2,32.2,56.7l0,0c-6.8,24.5-32.2,38.9-56.7,32.2l0,0
	c-24.5-6.8-39-32.2-32.2-56.7l0,0C1058.3,132.8,1083.7,118.4,1108.3,125.2C1108.2,125.2,1108.3,125.2,1108.3,125.2z"/>
<rect x="982.9" y="580.4" transform="matrix(0.9795 -0.2012 0.2012 0.9795 -107.5186 222.9435)" class="st5" width="119.7" height="119.7"/>
<path class="st1" d="M1667.8,138.1L1667.8,138.1c24.5,6.8,38.9,32.2,32.2,56.7l0,0c-6.8,24.5-32.2,38.9-56.7,32.2l0,0
	c-24.5-6.8-38.9-32.2-32.2-56.7l0,0C1617.9,145.8,1643.2,131.4,1667.8,138.1z"/>
<rect x="1458.1" y="277.7" transform="matrix(0.9599 -0.2803 0.2803 0.9599 -36.3561 425.7339)" class="st0" width="23.9" height="124.5"/>
<path class="st3" d="M1407.5,791.8c3.7,5.6,2.5,13-2.6,17.3c-27.2,22.7-58.5,30.6-85.8,21.6s-47.8-33.9-56.2-68.4
	c-6.3-25.8-20.1-43.4-38.9-49.6s-40.3-0.2-60.7,16.8c-5.5,4.8-13.8,4.2-18.5-1.3c-4.8-5.5-4.2-13.8,1.3-18.5
	c0.2-0.1,0.3-0.3,0.5-0.4c27.2-22.7,58.5-30.6,85.8-21.6s47.8,33.9,56.2,68.4c6.3,25.8,20.1,43.4,38.9,49.6s40.3,0.2,60.7-16.8
	c5.5-4.6,13.8-3.9,18.4,1.6c0,0,0.1,0.1,0.1,0.1L1407.5,791.8z"/>
<rect x="1522.8" y="329.4" transform="matrix(0.3138 -0.9495 0.9495 0.3138 613.448 1771.9015)" class="st4" width="19.7" height="264.2"/>
<path class="st4" d="M1706.5,420.2L1706.5,420.2c9.7,2.7,15.4,12.7,12.7,22.4c0,0,0,0,0,0l0,0c-2.7,9.7-12.7,15.4-22.4,12.7
	c0,0,0,0,0,0l0,0c-9.7-2.7-15.4-12.7-12.7-22.4c0,0,0,0,0,0l0,0C1686.8,423.3,1696.8,417.6,1706.5,420.2z"/>
<path class="st1" d="M1483.4,483.9L1483.4,483.9c16,4.4,25.3,20.9,20.9,36.9l0,0c-4.4,16-20.9,25.3-36.9,20.9l0,0
	c-16-4.4-25.3-20.9-20.9-36.9l0,0C1450.9,488.8,1467.4,479.5,1483.4,483.9z"/>
<rect x="1010.9" y="129.6" transform="matrix(0.9599 -0.2803 0.2803 0.9599 -12.7662 294.4299)" class="st4" width="23.9" height="124.5"/>
<rect x="1588.3" y="672.6" transform="matrix(0.9795 -0.2012 0.2012 0.9795 -113.6749 346.6788)" class="st5" width="119.7" height="119.7"/>
<path class="st5" d="M1772.3,334.1l66.5,230.9l-230.9,66.5l-66.6-230.9L1772.3,334.1z M1816.1,552.5l-56.3-195.7l-195.7,56.3
	l56.3,195.7L1816.1,552.5z"/>
<polygon class="st6" points="972.1,515 1111.3,399 1250.6,283 1281.4,461.6 1312.2,640.2 1142.1,577.6 "/>
<rect x="115.3" y="497.2" transform="matrix(0.2227 -0.9749 0.9749 0.2227 -510.4125 603.3784)" class="st0" width="15.8" height="249.1"/>
<path class="st1" d="M868.6,285c-2.1-3.5-1.1-8,2.4-10.2c12.7-7.9,19.7-18.3,19.7-29.4s-7-21.6-19.6-29.5
	c-16.9-10.6-26.5-25.9-26.5-42.1s9.8-31.4,26.7-41.9c3.5-2.2,8.1-1.1,10.2,2.4c0,0,0,0,0,0c2.1,3.5,1.1,8-2.4,10.2
	c-12.7,7.9-19.7,18.3-19.7,29.4s7,21.6,19.6,29.5c16.9,10.6,26.5,25.9,26.5,42.1c0,16.2-9.8,31.4-26.7,41.9c-3.2,2-7.4,1.2-9.7-1.7
	C869,285.5,868.8,285.3,868.6,285z"/>
<path class="st1" d="M454.1,582.3c-11.5,28.4-39.3,48.5-76.1,54.9c-4.9,0.9-9.9-0.2-13.9-3.1c-4.1-2.8-6.8-7.1-7.7-12
	c-0.9-4.9,0.2-9.9,3.1-13.9c2.8-4.1,7.1-6.8,12-7.7c24.2-4.3,41.2-15.7,47.9-32.2c6.7-16.5,2.4-36.5-12.1-56.4
	c-22.1-30.2-28.1-63.9-16.6-92.3c11.5-28.4,39.3-48.5,76.1-54.9c9.3-1.6,18.4,4,21.1,13.1c0.2,0.7,0.4,1.3,0.5,2
	c1.8,10.1-5,19.8-15.1,21.6c-24.2,4.3-41.2,15.7-47.9,32.2c-6.7,16.5-2.4,36.5,12.1,56.4c19,26.1,26.1,54.7,20.3,80.4
	C456.9,574.4,455.6,578.4,454.1,582.3z M415.4,429.5c8.1-20.1,28.1-33.9,56.2-38.8c4.2-0.8,6.9-4.7,6.2-8.9
	c-0.1-0.3-0.1-0.6-0.2-0.9l0,0c-1.1-3.8-4.8-6.1-8.7-5.4c-33.1,5.8-57.8,23.3-67.8,48.2s-4.4,54.7,15.3,81.8
	c16.8,23.1,21.5,46.9,13.4,67c-8.1,20.1-28.1,33.9-56.2,38.8c-2,0.4-3.8,1.5-5,3.2c-2.5,3.4-1.7,8.2,1.8,10.7
	c1.7,1.2,3.7,1.7,5.7,1.3c33.1-5.8,57.8-23.3,67.8-48.2c10-24.9,4.4-54.7-15.3-81.8c-14.6-20.1-20.1-40.6-16-58.9
	C413.3,434.8,414.2,432.1,415.4,429.5L415.4,429.5z"/>
<path class="st2" d="M696.3,920.6l-96-375.1l372.8,104.4L696.3,920.6z M705.4,887.7L940,658.4l-315.9-88.5L705.4,887.7z"/>
<path class="st3" d="M418.6,286.8L418.6,286.8c-15.4-55.7,17.3-113.3,73-128.7c0,0,0,0,0,0l0,0c55.7-15.4,113.3,17.3,128.7,73
	c0,0,0,0,0,0l0,0c15.4,55.7-17.3,113.3-73,128.7c0,0,0,0,0,0l0,0C491.6,375.1,434,342.4,418.6,286.8z"/>
<path class="st4" d="M114.6,556.5L114.6,556.5c-2.7-9.7,3-19.7,12.7-22.4c0,0,0,0,0,0l0,0c9.7-2.7,19.7,3,22.4,12.7c0,0,0,0,0,0l0,0
	c2.7,9.7-3,19.7-12.7,22.4c0,0,0,0,0,0l0,0C127.3,571.9,117.3,566.2,114.6,556.5C114.6,556.5,114.6,556.5,114.6,556.5z"/>
<path class="st1" d="M132,763.2L132,763.2c-6.7-24.5,7.7-49.9,32.2-56.7l0,0c24.5-6.7,49.9,7.7,56.7,32.2l0,0
	c6.7,24.5-7.7,49.9-32.2,56.7l0,0C164.2,802.1,138.8,787.8,132,763.2C132,763.2,132,763.2,132,763.2z"/>
<rect x="63.3" y="220.5" transform="matrix(0.2012 -0.9795 0.9795 0.2012 -176.2669 344.582)" class="st5" width="119.7" height="119.7"/>
<path class="st1" d="M691.5,750.3L691.5,750.3c-6.7-24.5,7.7-49.9,32.2-56.7l0,0c24.5-6.7,49.9,7.7,56.7,32.2l0,0
	c6.7,24.5-7.7,49.9-32.2,56.7l0,0C723.7,789.2,698.4,774.8,691.5,750.3z"/>
<rect x="488.2" y="568.7" transform="matrix(0.2803 -0.9599 0.9599 0.2803 -161.2238 946.2718)" class="st0" width="124.5" height="23.9"/>
<path class="st3" d="M487,130c-4.6,5.6-12.8,6.3-18.4,1.8c0,0,0,0-0.1-0.1c-20.4-17-41.9-23-60.7-16.8
	c-18.8,6.2-32.6,23.8-38.9,49.6c-8.4,34.5-28.9,59.4-56.2,68.4s-58.6,1.1-85.8-21.6c-5.7-4.5-6.6-12.8-2.1-18.5
	c4.5-5.7,12.8-6.6,18.5-2.1c0.2,0.1,0.3,0.3,0.5,0.4c20.4,17,41.9,23,60.7,16.8s32.6-23.8,38.9-49.6c8.4-34.5,28.9-59.4,56.2-68.4
	c27.3-9,58.6-1.1,85.8,21.6c5.1,4.3,6.3,11.7,2.6,17.3L487,130z"/>
<rect x="480.9" y="449.2" transform="matrix(0.9495 -0.3138 0.3138 0.9495 -113.0897 215.5769)" class="st4" width="264.2" height="19.7"/>
<path class="st4" d="M764.5,487.7L764.5,487.7c-2.7-9.7,3-19.7,12.7-22.4c0,0,0,0,0,0l0,0c9.7-2.7,19.7,3,22.4,12.7c0,0,0,0,0,0l0,0
	c2.7,9.7-3,19.7-12.7,22.4c0,0,0,0,0,0l0,0C777.3,503,767.3,497.3,764.5,487.7z"/>
<path class="st1" d="M526.9,415.8L526.9,415.8c-4.4-16,4.9-32.5,20.9-36.9l0,0c16-4.4,32.5,4.9,36.9,20.9l0,0
	c4.4,16-4.9,32.5-20.9,36.9l0,0C547.8,441.1,531.3,431.7,526.9,415.8z"/>
<rect x="41" y="716.8" transform="matrix(0.2803 -0.9599 0.9599 0.2803 -625.2145 623.5992)" class="st4" width="124.5" height="23.9"/>
<rect x="668.7" y="128.4" transform="matrix(0.2012 -0.9795 0.9795 0.2012 397.5628 864.05)" class="st5" width="119.7" height="119.7"/>
<path class="st5" d="M621.7,520l66.6-230.9l230.9,66.5l-66.5,230.9L621.7,520z M700.8,311.8l-56.3,195.7l195.7,56.3l56.3-195.7
	L700.8,311.8z"/>
<polygon class="st6" points="222.5,343 392.6,280.4 361.8,459 331,637.6 191.7,521.6 52.5,405.6 "/>
</svg>
