<?xml version="1.0" encoding="utf-8"?>
<!-- Generator: Adobe Illustrator 22.1.0, SVG Export Plug-In . SVG Version: 6.00 Build 0)  -->
<svg version="1.1" id="Layer_1" xmlns="http://www.w3.org/2000/svg" xmlns:xlink="http://www.w3.org/1999/xlink" x="0px" y="0px"
	 viewBox="0 0 1728 1152" style="enable-background:new 0 0 1728 1152;" xml:space="preserve">
<style type="text/css">
	.st0{fill:#40DBBD;}
	.st1{fill:#FFBFBC;}
	.st2{fill:#34BDBA;}
	.st3{fill:#CECCCC;}
	.st4{fill:#A7EBE6;}
	.st5{fill:#7698CE;}
	.st6{fill:#DDDBDB;}
</style>
<g>
	
		<rect x="1164.3" y="701" transform="matrix(0.9749 -0.2228 0.2228 0.9749 -154.4584 281.8983)" class="st0" width="15.8" height="249.1"/>
</g>
<g>
	<g>
		<path class="st1" d="M1508.3,79.6c-2.9-2.3-3.7-6.5-1.7-9.7c10.5-16.9,25.8-26.7,41.9-26.7c16.2,0,31.5,9.6,42.1,26.5
			c7.9,12.6,18.4,19.6,29.5,19.6s21.5-7,29.4-19.7c2.2-3.5,6.7-4.5,10.2-2.4s4.5,6.7,2.4,10.2c-10.5,16.9-25.8,26.7-41.9,26.7
			c-16.2,0-31.5-9.6-42.1-26.5c-7.9-12.6-18.4-19.6-29.5-19.6s-21.5,7-29.4,19.7c-2.2,3.5-6.7,4.5-10.2,2.4
			C1508.7,79.9,1508.5,79.7,1508.3,79.6z"/>
	</g>
</g>
<g>
	<path class="st2" d="M1223.6,490.9c25.7-5.8,54.3,1.3,80.4,20.3c19.9,14.5,39.9,18.8,56.4,12.1s27.9-23.7,32.2-47.9
		c1.8-10.1,11.5-16.9,21.6-15.1c0.7,0.1,1.4,0.3,2,0.5c9.1,2.7,14.7,11.7,13.1,21.1c-6.4,36.8-26.5,64.6-54.9,76.1
		s-62.1,5.5-92.3-16.6c-19.9-14.5-39.9-18.8-56.4-12.1s-27.9,23.7-32.2,47.9c-0.9,4.9-3.6,9.2-7.7,12c-4.1,2.9-9,4-13.9,3.1
		s-9.2-3.6-12-7.7c-2.9-4.1-4-9-3.1-13.9c6.4-36.8,26.5-64.6,54.9-76.1C1215.5,493.1,1219.5,491.8,1223.6,490.9z M1356.4,536.1
		c-18.3,4.1-38.8-1.4-58.9-16c-27.1-19.7-56.9-25.3-81.8-15.3s-42.4,34.7-48.2,67.8c-0.4,2,0.1,4.1,1.3,5.7c1.2,1.7,2.9,2.8,5,3.1
		c2,0.4,4.1-0.1,5.7-1.3c1.7-1.2,2.8-2.9,3.2-5c4.9-28.1,18.7-48.1,38.8-56.2c20.1-8.1,43.9-3.4,67,13.4
		c27.1,19.7,56.9,25.3,81.8,15.3s42.4-34.7,48.2-67.8c0.7-3.9-1.6-7.6-5.4-8.7l0,0c-0.3-0.1-0.6-0.1-0.9-0.2
		c-4.2-0.7-8.2,2.1-8.9,6.2c-4.9,28.1-18.7,48.1-38.8,56.2C1361.8,534.6,1359.1,535.4,1356.4,536.1z"/>
</g>
<g>
	<g>
		<path class="st3" d="M1144.1-24.4l104.4,372.8l-375.1-96L1144.1-24.4z M1224.1,324.6L1135.6,8.7L906.3,243.3L1224.1,324.6z"/>
	</g>
</g>
<g>
	<g>
		<path class="st4" d="M1434.2,401.4L1434.2,401.4c15.4-55.7,73-88.4,128.7-73l0,0c55.7,15.4,88.4,73,73,128.7l0,0
			c-15.4,55.7-73,88.4-128.7,73l0,0C1451.6,514.7,1418.9,457.1,1434.2,401.4z"/>
	</g>
</g>
<g>
	<g>
		<path class="st3" d="M1224.8,811.7L1224.8,811.7c2.7-9.7,12.7-15.4,22.4-12.7l0,0c9.7,2.7,15.4,12.7,12.7,22.4l0,0
			c-2.7,9.7-12.7,15.4-22.4,12.7l0,0C1227.8,831.4,1222.1,821.4,1224.8,811.7z"/>
	</g>
</g>
<g>
	<g>
		<path class="st1" d="M998.6,760L998.6,760c6.8-24.5,32.1-38.9,56.7-32.2l0,0c24.5,6.8,38.9,32.1,32.2,56.7l0,0
			c-6.8,24.5-32.1,38.9-56.7,32.2l0,0C1006.2,809.9,991.8,784.5,998.6,760z"/>
	</g>
</g>
<g>
	<g>
		
			<rect x="1453.7" y="765.7" transform="matrix(0.9795 -0.2013 0.2013 0.9795 -135.2031 321.596)" class="st5" width="119.7" height="119.7"/>
	</g>
</g>
<g>
	<g>
		<path class="st1" d="M1011.5,200.5L1011.5,200.5c6.8-24.5,32.1-38.9,56.7-32.2l0,0c24.5,6.8,38.9,32.1,32.2,56.7l0,0
			c-6.8,24.5-32.1,38.9-56.7,32.2l0,0C1019.2,250.4,1004.8,225,1011.5,200.5z"/>
	</g>
</g>
<g>
	<g>
		
			<rect x="1151" y="386.3" transform="matrix(0.9599 -0.2804 0.2804 0.9599 -62.9898 356.1718)" class="st0" width="124.5" height="23.9"/>
	</g>
</g>
<g>
	<g>
		<path class="st4" d="M1665.2,460.8c5.5-3.6,13-2.6,17.3,2.6c22.7,27.2,30.6,58.5,21.6,85.8s-33.9,47.8-68.4,56.2
			c-25.8,6.3-43.4,20.1-49.6,38.9c-6.2,18.8-0.2,40.3,16.8,60.7c4.7,5.6,3.9,13.9-1.7,18.5c-5.6,4.7-13.9,3.9-18.5-1.7
			c-22.7-27.2-30.6-58.5-21.6-85.8s33.9-47.8,68.4-56.2c25.8-6.3,43.4-20.1,49.6-38.9c6.2-18.8,0.2-40.3-16.8-60.7
			c-4.7-5.6-3.9-13.9,1.7-18.5C1664.4,461.4,1664.8,461.1,1665.2,460.8z"/>
	</g>
</g>
<g>
	<g>
		
			<rect x="1202.8" y="325.8" transform="matrix(0.3138 -0.9495 0.9495 0.3138 597.3026 1497.8228)" class="st6" width="264.2" height="19.7"/>
	</g>
</g>
<g>
	<g>
		<path class="st3" d="M1293.6,161.8L1293.6,161.8c2.7-9.7,12.7-15.4,22.4-12.7l0,0c9.7,2.7,15.4,12.7,12.7,22.4l0,0
			c-2.7,9.7-12.7,15.4-22.4,12.7l0,0C1296.7,181.5,1291,171.5,1293.6,161.8z"/>
	</g>
</g>
<g>
	<g>
		<path class="st1" d="M1357.3,384.9L1357.3,384.9c4.4-16,20.9-25.3,36.9-20.9l0,0c16,4.4,25.3,20.9,20.9,36.9l0,0
			c-4.4,16-20.9,25.3-36.9,20.9l0,0C1362.3,417.4,1352.9,400.9,1357.3,384.9z"/>
	</g>
</g>
<g>
	<g>
		
			<rect x="1002.9" y="833.5" transform="matrix(0.9599 -0.2804 0.2804 0.9599 -194.3277 332.5873)" class="st6" width="124.5" height="23.9"/>
	</g>
</g>
<g>
	<g>
		
			<rect x="1545.9" y="160.2" transform="matrix(0.9795 -0.2013 0.2013 0.9795 -11.4314 327.7439)" class="st5" width="119.7" height="119.7"/>
	</g>
</g>
<g>
	<path class="st5" d="M1207.5,96l230.9-66.5l66.5,230.9L1274,327L1207.5,96z M1425.9,52.2l-195.7,56.3l56.3,195.7l195.7-56.3
		L1425.9,52.2z"/>
</g>
<g>
	<g>
		<g>
			<polygon class="st2" points="1388.4,896.2 1272.4,757 1156.4,617.7 1335,586.9 1513.6,556.1 1451,726.2 			"/>
		</g>
	</g>
</g>
</svg>
