<?xml version="1.0" encoding="utf-8"?>
<!-- Generator: Adobe Illustrator 25.4.1, SVG Export Plug-In . SVG Version: 6.00 Build 0)  -->
<svg version="1.1" id="wave" xmlns="http://www.w3.org/2000/svg" xmlns:xlink="http://www.w3.org/1999/xlink" x="0px" y="0px"
	 viewBox="0 0 1440 490" style="enable-background:new 0 0 1440 490;" xml:space="preserve">
<style type="text/css">
	.st0{fill:#1A1E21;}
</style>
<path class="st0" d="M0,343l80-16.3C160,310,320,278,480,294s320,82,480,65.3c160-16.3,320-114.3,480-179.6
	c160-65.7,320-97.7,480-73.5c160,24.8,320,105.8,480,122.5c160,16.3,320-32.7,480-16.4c160,16.7,320,97.7,480,81.7
	s320-131,480-130.7C4000,163,4160,278,4320,343s320,82,480,40.8c160-40.8,320-138.8,480-212.3S5600,49,5760,32.7
	c160-16.7,320,0.3,480,73.5c160,73.8,320,203.8,480,196c160-8.2,320-155.2,480-228.7S7520,0,7680,0s320,0,480,0s320,0,480,57.2
	c160,56.8,320,171.8,480,179.6c160,8.2,320-89.8,480-114.3s320,24.5,480,81.7c160,56.8,320,122.8,480,138.8s320-16,480-32.7
	c160-16.3,320-16.3,400-16.3h80v196h-80c-80,0-240,0-400,0s-320,0-480,0s-320,0-480,0s-320,0-480,0s-320,0-480,0s-320,0-480,0
	s-320,0-480,0s-320,0-480,0s-320,0-480,0s-320,0-480,0s-320,0-480,0s-320,0-480,0s-320,0-480,0s-320,0-480,0s-320,0-480,0
	s-320,0-480,0s-320,0-480,0s-320,0-480,0s-320,0-480,0s-320,0-480,0s-320,0-480,0s-320,0-480,0s-320,0-480,0s-320,0-400,0H0V343z"/>
</svg>
