<?xml version="1.0" standalone="no"?>
<svg xmlns:xlink="http://www.w3.org/1999/xlink" id="wave" style="transform:rotate(180deg); transition: 0.3s" viewBox="0 0 1440 230" version="1.1" xmlns="http://www.w3.org/2000/svg"><defs><linearGradient id="sw-gradient-0" x1="0" x2="0" y1="1" y2="0"><stop stop-color="rgba(26, 30, 33, 1)" offset="0%"/><stop stop-color="rgba(26, 30, 33, 1)" offset="100%"/></linearGradient></defs><path style="transform:translate(0, 0px); opacity:1" fill="url(#sw-gradient-0)" d="M0,92L120,107.3C240,123,480,153,720,145.7C960,138,1200,92,1440,92C1680,92,1920,138,2160,164.8C2400,192,2640,199,2880,168.7C3120,138,3360,69,3600,49.8C3840,31,4080,61,4320,88.2C4560,115,4800,138,5040,141.8C5280,146,5520,130,5760,134.2C6000,138,6240,161,6480,149.5C6720,138,6960,92,7200,88.2C7440,84,7680,123,7920,126.5C8160,130,8400,100,8640,103.5C8880,107,9120,146,9360,168.7C9600,192,9840,199,10080,180.2C10320,161,10560,115,10800,115C11040,115,11280,161,11520,172.5C11760,184,12000,161,12240,161C12480,161,12720,184,12960,187.8C13200,192,13440,176,13680,176.3C13920,176,14160,192,14400,191.7C14640,192,14880,176,15120,176.3C15360,176,15600,192,15840,168.7C16080,146,16320,84,16560,65.2C16800,46,17040,69,17160,80.5L17280,92L17280,230L17160,230C17040,230,16800,230,16560,230C16320,230,16080,230,15840,230C15600,230,15360,230,15120,230C14880,230,14640,230,14400,230C14160,230,13920,230,13680,230C13440,230,13200,230,12960,230C12720,230,12480,230,12240,230C12000,230,11760,230,11520,230C11280,230,11040,230,10800,230C10560,230,10320,230,10080,230C9840,230,9600,230,9360,230C9120,230,8880,230,8640,230C8400,230,8160,230,7920,230C7680,230,7440,230,7200,230C6960,230,6720,230,6480,230C6240,230,6000,230,5760,230C5520,230,5280,230,5040,230C4800,230,4560,230,4320,230C4080,230,3840,230,3600,230C3360,230,3120,230,2880,230C2640,230,2400,230,2160,230C1920,230,1680,230,1440,230C1200,230,960,230,720,230C480,230,240,230,120,230L0,230Z"/></svg>