<?xml version="1.0" standalone="no"?>
<svg xmlns:xlink="http://www.w3.org/1999/xlink" id="wave" style="transform:rotate(0deg); transition: 0.3s" viewBox="0 0 1440 300" version="1.1" xmlns="http://www.w3.org/2000/svg"><defs><linearGradient id="sw-gradient-0" x1="0" x2="0" y1="1" y2="0"><stop stop-color="rgba(26, 30, 33, 1)" offset="0%"/><stop stop-color="rgba(26, 30, 33, 1)" offset="100%"/></linearGradient></defs><path style="transform:translate(0, 0px); opacity:1" fill="url(#sw-gradient-0)" d="M0,120L48,140C96,160,192,200,288,190C384,180,480,120,576,120C672,120,768,180,864,215C960,250,1056,260,1152,220C1248,180,1344,90,1440,65C1536,40,1632,80,1728,115C1824,150,1920,180,2016,185C2112,190,2208,170,2304,175C2400,180,2496,210,2592,195C2688,180,2784,120,2880,115C2976,110,3072,160,3168,165C3264,170,3360,130,3456,135C3552,140,3648,190,3744,220C3840,250,3936,260,4032,235C4128,210,4224,150,4320,150C4416,150,4512,210,4608,225C4704,240,4800,210,4896,210C4992,210,5088,240,5184,245C5280,250,5376,230,5472,230C5568,230,5664,250,5760,250C5856,250,5952,230,6048,230C6144,230,6240,250,6336,220C6432,190,6528,110,6624,85C6720,60,6816,90,6864,105L6912,120L6912,300L6864,300C6816,300,6720,300,6624,300C6528,300,6432,300,6336,300C6240,300,6144,300,6048,300C5952,300,5856,300,5760,300C5664,300,5568,300,5472,300C5376,300,5280,300,5184,300C5088,300,4992,300,4896,300C4800,300,4704,300,4608,300C4512,300,4416,300,4320,300C4224,300,4128,300,4032,300C3936,300,3840,300,3744,300C3648,300,3552,300,3456,300C3360,300,3264,300,3168,300C3072,300,2976,300,2880,300C2784,300,2688,300,2592,300C2496,300,2400,300,2304,300C2208,300,2112,300,2016,300C1920,300,1824,300,1728,300C1632,300,1536,300,1440,300C1344,300,1248,300,1152,300C1056,300,960,300,864,300C768,300,672,300,576,300C480,300,384,300,288,300C192,300,96,300,48,300L0,300Z"/></svg>