<?xml version="1.0" standalone="no"?>
<svg xmlns:xlink="http://www.w3.org/1999/xlink" id="wave" style="transform:rotate(180deg); transition: 0.3s" viewBox="0 0 1440 170" version="1.1" xmlns="http://www.w3.org/2000/svg"><defs><linearGradient id="sw-gradient-0" x1="0" x2="0" y1="1" y2="0"><stop stop-color="rgba(26, 30, 33, 1)" offset="0%"/><stop stop-color="rgba(26, 30, 33, 1)" offset="100%"/></linearGradient></defs><path style="transform:translate(0, 0px); opacity:1" fill="url(#sw-gradient-0)" d="M0,136L48,121.8C96,108,192,79,288,62.3C384,45,480,40,576,45.3C672,51,768,68,864,79.3C960,91,1056,96,1152,90.7C1248,85,1344,68,1440,53.8C1536,40,1632,28,1728,31.2C1824,34,1920,51,2016,62.3C2112,74,2208,79,2304,73.7C2400,68,2496,51,2592,53.8C2688,57,2784,79,2880,73.7C2976,68,3072,34,3168,28.3C3264,23,3360,45,3456,48.2C3552,51,3648,34,3744,31.2C3840,28,3936,40,4032,48.2C4128,57,4224,62,4320,62.3C4416,62,4512,57,4608,59.5C4704,62,4800,74,4896,68C4992,62,5088,40,5184,34C5280,28,5376,40,5472,51C5568,62,5664,74,5760,65.2C5856,57,5952,28,6048,22.7C6144,17,6240,34,6336,34C6432,34,6528,17,6624,19.8C6720,23,6816,45,6864,56.7L6912,68L6912,170L6864,170C6816,170,6720,170,6624,170C6528,170,6432,170,6336,170C6240,170,6144,170,6048,170C5952,170,5856,170,5760,170C5664,170,5568,170,5472,170C5376,170,5280,170,5184,170C5088,170,4992,170,4896,170C4800,170,4704,170,4608,170C4512,170,4416,170,4320,170C4224,170,4128,170,4032,170C3936,170,3840,170,3744,170C3648,170,3552,170,3456,170C3360,170,3264,170,3168,170C3072,170,2976,170,2880,170C2784,170,2688,170,2592,170C2496,170,2400,170,2304,170C2208,170,2112,170,2016,170C1920,170,1824,170,1728,170C1632,170,1536,170,1440,170C1344,170,1248,170,1152,170C1056,170,960,170,864,170C768,170,672,170,576,170C480,170,384,170,288,170C192,170,96,170,48,170L0,170Z"/></svg>